<?xml version="1.0" standalone="no"?>
<!DOCTYPE svg PUBLIC "-//W3C//DTD SVG 20010904//EN"
 "http://www.w3.org/TR/2001/REC-SVG-20010904/DTD/svg10.dtd">
<svg version="1.0" xmlns="http://www.w3.org/2000/svg"
 width="600.000000pt" height="600.000000pt" viewBox="0 0 600.000000 600.000000"
 preserveAspectRatio="xMidYMid meet">

<g transform="translate(0.000000,600.000000) scale(0.100000,-0.100000)"
fill="#000000" stroke="none">
<path d="M3072 5518 c-15 -15 -16 -54 -2 -63 6 -4 10 -100 10 -256 l0 -249
-79 0 c-79 0 -94 -7 -84 -37 5 -15 349 -18 372 -4 8 5 11 16 8 25 -5 13 -22
16 -87 16 l-80 0 0 163 c0 89 5 213 10 276 6 81 6 119 -2 128 -13 16 -50 17
-66 1z"/>
<path d="M2953 5473 c-8 -3 -13 -22 -13 -48 0 -26 5 -45 13 -48 26 -9 37 6 37
48 0 42 -11 57 -37 48z"/>
<path d="M3224 5467 c-3 -8 -4 -32 -2 -53 2 -31 7 -39 23 -39 17 0 20 7 20 50
0 39 -4 50 -18 53 -9 2 -20 -3 -23 -11z"/>
<path d="M2814 5446 c-3 -7 -4 -35 -2 -62 3 -42 6 -49 26 -52 21 -3 22 0 22
62 0 60 -2 66 -20 66 -11 0 -23 -6 -26 -14z"/>
<path d="M3354 5446 c-3 -7 -4 -35 -2 -62 3 -42 6 -49 26 -52 21 -3 22 0 22
62 0 60 -2 66 -20 66 -11 0 -23 -6 -26 -14z"/>
<path d="M2654 5425 c-4 -9 -2 -21 4 -27 16 -16 47 -5 47 17 0 26 -42 34 -51
10z"/>
<path d="M3504 5425 c-4 -9 -2 -21 4 -27 16 -16 47 -5 47 17 0 26 -42 34 -51
10z"/>
<path d="M2504 5396 c-10 -26 4 -48 28 -44 17 2 23 10 23 28 0 18 -6 26 -23
28 -13 2 -25 -3 -28 -12z"/>
<path d="M3654 5396 c-10 -26 4 -48 28 -44 17 2 23 10 23 28 0 18 -6 26 -23
28 -13 2 -25 -3 -28 -12z"/>
<path d="M2401 5371 c-19 -12 -6 -43 16 -39 10 2 18 12 18 22 0 22 -14 29 -34
17z"/>
<path d="M3787 5374 c-16 -16 -7 -44 14 -44 15 0 20 5 17 22 -3 22 -19 33 -31
22z"/>
<path d="M2290 5336 c0 -8 4 -17 9 -20 11 -7 33 18 24 27 -12 12 -33 7 -33 -7z"/>
<path d="M2630 5328 c-43 -22 -60 -43 -80 -100 -9 -28 -10 -28 -101 -28 l-92
0 -53 50 c-68 64 -102 66 -207 14 -70 -36 -73 -36 -100 -20 -64 36 -76 11 -21
-45 l36 -37 94 50 94 49 33 -20 c17 -11 47 -35 65 -54 l34 -35 -46 -56 c-25
-31 -53 -70 -62 -87 -11 -22 -20 -29 -32 -24 -29 11 -104 27 -154 32 -40 4
-55 13 -109 64 -63 61 -92 70 -97 33 -2 -14 11 -31 40 -54 l43 -35 -50 -5
c-42 -4 -50 -8 -50 -25 0 -18 8 -20 73 -23 39 -2 72 -7 72 -12 0 -13 37 -13
45 0 16 25 25 5 25 -55 l0 -65 -83 0 c-71 0 -87 3 -102 20 -21 24 -43 26 -51
5 -4 -8 17 -41 51 -81 88 -104 91 -110 69 -137 -39 -46 -98 -107 -106 -107 -4
0 -40 28 -79 63 -40 34 -92 79 -117 100 l-44 37 -126 0 -126 0 -103 -103 c-57
-57 -103 -108 -103 -114 0 -7 10 -15 21 -18 18 -6 37 9 113 89 l91 96 107 0
106 0 111 -97 c110 -96 111 -98 92 -117 -20 -19 -21 -18 -100 53 l-80 72 -85
-2 c-97 -2 -90 2 -224 -114 l-81 -70 -1 -98 0 -99 -112 2 c-143 3 -135 4 -148
-21 -9 -16 -8 -26 5 -45 17 -27 41 -31 70 -11 27 18 131 14 127 -5 -2 -7 -24
-34 -49 -59 -26 -26 -48 -57 -49 -70 -10 -70 -8 -82 9 -93 27 -16 49 16 36 51
-9 23 -3 32 56 93 36 38 65 74 65 82 0 7 10 26 23 41 l22 29 48 -42 c74 -66
119 -41 47 26 -41 38 -41 38 -18 50 50 26 64 25 76 0 28 -62 123 -71 164 -16
21 29 25 30 97 30 l76 0 -115 -115 -115 -115 -49 0 c-34 0 -70 10 -118 32 -60
27 -71 29 -83 17 -20 -20 -8 -33 58 -63 66 -30 66 -37 -3 -99 -44 -40 -51 -43
-79 -25 -21 13 -51 5 -51 -14 1 -17 40 -45 75 -54 24 -6 35 2 107 75 77 78 81
81 126 81 45 0 47 1 188 140 l142 140 119 0 119 0 89 56 c49 31 177 101 284
154 108 54 223 119 256 145 118 92 230 133 391 142 170 10 331 -34 443 -120
51 -39 54 -40 67 -22 8 10 14 22 14 26 0 17 -80 73 -155 109 -145 70 -334 89
-506 51 -112 -25 -199 -65 -278 -130 -40 -32 -127 -82 -230 -132 -91 -44 -218
-112 -282 -150 l-116 -69 -228 0 -227 0 -20 25 c-12 15 -21 45 -23 73 -2 26
-8 60 -14 75 -6 16 -11 35 -11 43 0 23 43 16 76 -14 129 -113 144 -123 161
-118 10 4 72 60 138 126 l120 120 107 0 c120 0 138 4 138 31 0 18 -9 19 -129
19 l-130 0 -35 44 c-20 23 -36 46 -36 50 0 11 99 7 119 -6 39 -24 51 -5 51 82
0 77 1 80 23 80 13 0 47 -7 76 -16 60 -17 75 -11 84 35 3 15 27 54 53 85 l46
57 54 -80 c49 -72 57 -80 74 -71 11 6 20 14 20 18 0 4 -23 41 -50 82 -27 41
-50 78 -50 83 0 4 31 7 68 7 66 0 70 -1 110 -40 54 -50 95 -59 156 -32 63 28
88 71 83 140 -4 62 -39 106 -96 122 -49 13 -51 13 -101 -12z m100 -43 c85 -44
57 -165 -38 -165 -95 0 -125 128 -38 166 40 17 41 17 76 -1z m-1274 -786 c8
-24 14 -59 14 -76 0 -28 -5 -35 -34 -47 -19 -8 -39 -22 -45 -33 -10 -17 -12
-17 -30 6 -12 15 -24 22 -35 18 -19 -7 -21 -28 -5 -44 8 -8 3 -15 -19 -27 -17
-9 -40 -16 -52 -16 -18 0 -20 6 -20 53 0 48 3 56 38 89 64 61 154 129 165 125
5 -1 16 -23 23 -48z m56 -194 c10 -22 9 -29 -10 -47 -18 -19 -25 -20 -47 -10
-16 8 -25 20 -25 35 0 50 62 66 82 22z"/>
<path d="M3892 5333 c2 -10 10 -18 18 -18 8 0 16 8 18 18 2 12 -3 17 -18 17
-15 0 -20 -5 -18 -17z"/>
<path d="M3502 5288 c-23 -23 -13 -38 26 -38 99 0 101 -128 2 -145 -31 -5 -40
-11 -38 -23 2 -12 16 -18 45 -20 39 -3 46 1 87 42 l44 46 129 0 129 0 49 50
c27 28 54 50 59 50 11 0 109 -36 138 -51 28 -14 41 -10 67 22 30 39 17 58 -27
40 -26 -11 -38 -9 -94 13 -91 37 -105 34 -163 -24 l-49 -50 -123 0 -123 0 -14
33 c-7 18 -25 41 -39 50 -30 20 -88 22 -105 5z"/>
<path d="M2950 5202 c0 -49 4 -71 13 -75 29 -11 38 9 35 74 -3 58 -5 64 -25
67 -22 3 -23 0 -23 -66z"/>
<path d="M3214 5257 c-2 -7 -3 -58 -2 -113 3 -94 4 -99 26 -102 22 -3 22 -2
22 112 0 110 -1 116 -20 116 -11 0 -23 -6 -26 -13z"/>
<path d="M4297 5193 c-4 -3 -4 -37 -1 -74 7 -66 0 -119 -14 -119 -4 0 -14 18
-23 39 -43 102 -171 101 -222 -2 -27 -53 -41 -37 -34 39 4 57 3 64 -13 64 -24
0 -30 -19 -30 -93 l-1 -62 -52 -25 c-37 -18 -53 -32 -55 -47 -4 -29 2 -29 62
2 61 31 72 31 87 3 10 -18 9 -23 -2 -27 -30 -10 -78 -69 -89 -111 -19 -69 0
-165 43 -218 7 -9 13 -9 23 -2 10 9 9 19 -7 53 -22 51 -25 137 -4 177 15 28
64 74 72 66 3 -2 -3 -18 -11 -35 -50 -96 18 -215 124 -215 127 0 202 139 127
237 l-24 32 33 39 34 39 65 -33 c48 -24 69 -30 77 -22 14 14 -43 68 -89 83
l-33 11 0 81 c0 45 -3 92 -6 105 -6 21 -24 29 -37 15z m-117 -194 c9 -16 8
-25 -6 -40 -22 -25 -50 -24 -64 1 -8 14 -8 26 0 40 14 27 56 26 70 -1z m-96
-76 c17 -18 25 -33 19 -33 -17 0 -63 48 -63 67 0 9 3 13 8 8 4 -6 20 -25 36
-42z m142 -10 c-42 -36 -54 -27 -16 12 21 22 36 31 39 24 2 -7 -8 -23 -23 -36z
m4 -95 c11 -12 20 -30 20 -41 0 -18 -1 -18 -26 2 -15 12 -33 21 -40 21 -14 0
-19 22 -7 33 12 13 32 7 53 -15z"/>
<path d="M2116 5131 c-10 -16 5 -42 23 -39 21 4 21 42 -1 46 -9 2 -19 -1 -22
-7z"/>
<path d="M1665 5026 c-20 -15 -15 -43 10 -52 18 -7 45 12 45 32 0 22 -35 35
-55 20z"/>
<path d="M2705 4957 c-213 -110 -380 -204 -395 -222 -10 -12 -10 -18 0 -30 7
-8 16 -15 21 -15 5 0 64 31 132 69 67 37 195 105 285 151 89 46 162 88 162 94
0 15 -21 36 -34 36 -6 0 -83 -38 -171 -83z"/>
<path d="M3314 5025 c-11 -29 5 -44 108 -95 111 -57 125 -64 299 -164 63 -36
120 -66 126 -66 17 0 24 31 11 48 -32 38 -490 292 -528 292 -6 0 -13 -7 -16
-15z"/>
<path d="M4505 5020 c-12 -20 6 -50 30 -50 15 0 26 7 30 20 9 27 -1 40 -30 40
-13 0 -27 -5 -30 -10z"/>
<path d="M2352 4923 c5 -26 38 -29 38 -4 0 15 -6 21 -21 21 -14 0 -19 -5 -17
-17z"/>
<path d="M1474 4876 c-10 -26 4 -48 28 -44 17 2 23 10 23 28 0 18 -6 26 -23
28 -13 2 -25 -3 -28 -12z"/>
<path d="M4694 4875 c-8 -21 2 -45 19 -45 21 0 38 25 31 44 -8 20 -43 21 -50
1z"/>
<path d="M1667 4843 c-14 -13 -6 -33 13 -33 13 0 20 7 20 20 0 19 -20 27 -33
13z"/>
<path d="M4530 4830 c0 -13 7 -20 20 -20 13 0 20 7 20 20 0 13 -7 20 -20 20
-13 0 -20 -7 -20 -20z"/>
<path d="M4387 4814 c-15 -15 -7 -82 10 -88 24 -10 35 7 31 50 -3 37 -23 56
-41 38z"/>
<path d="M4645 4724 c-16 -8 -75 -60 -131 -115 -56 -54 -105 -99 -110 -99 -5
0 -28 16 -52 35 -42 33 -72 37 -72 10 0 -22 95 -95 124 -95 15 0 49 -15 76
-34 44 -30 54 -33 79 -25 46 16 93 61 81 79 -8 13 -15 12 -54 -10 l-45 -24
-28 20 c-15 11 -28 25 -30 30 -2 5 37 49 86 98 l88 88 106 5 106 6 46 -47 c50
-50 57 -53 74 -33 8 11 2 24 -27 58 -20 24 -44 49 -52 56 -23 19 -227 17 -265
-3z"/>
<path d="M1730 4695 c0 -8 9 -15 20 -15 11 0 20 7 20 15 0 8 -9 15 -20 15 -11
0 -20 -7 -20 -15z"/>
<path d="M2436 4664 c-27 -19 -35 -29 -27 -37 14 -14 101 27 101 48 0 23 -31
18 -74 -11z"/>
<path d="M3690 4680 c0 -10 57 -42 98 -54 39 -13 26 22 -18 44 -42 21 -80 26
-80 10z"/>
<path d="M4365 4661 c-8 -15 3 -31 21 -31 9 0 14 7 12 17 -4 20 -24 28 -33 14z"/>
<path d="M2980 4579 c-188 -129 -606 -361 -814 -451 -130 -57 -190 -77 -280
-93 -43 -8 -85 -20 -92 -26 -11 -9 -14 -48 -14 -175 l0 -164 -296 0 c-281 0
-297 -1 -321 -20 -21 -17 -41 -20 -114 -20 l-87 0 -7 30 c-14 66 -108 103
-163 64 -18 -12 -26 -13 -37 -4 -18 15 -45 6 -45 -14 0 -22 19 -29 37 -14 15
12 15 11 5 -9 -22 -41 -15 -82 22 -119 41 -41 92 -46 144 -14 27 17 50 20 136
20 88 0 107 3 129 20 24 19 40 20 310 20 l286 0 3 -417 c4 -416 4 -418 31
-518 34 -125 133 -326 224 -455 133 -185 349 -387 572 -535 121 -79 349 -204
441 -241 l65 -26 170 86 c287 144 497 291 689 480 241 239 410 539 445 790 6
44 11 242 11 457 l0 379 286 0 c271 0 287 -1 311 -20 22 -17 41 -20 135 -20
95 0 113 -3 135 -20 34 -27 102 -27 136 0 29 23 51 80 42 109 -4 14 0 21 15
26 26 8 22 40 -5 40 -13 0 -20 -6 -19 -17 2 -15 -3 -14 -28 7 -43 36 -97 34
-143 -6 -22 -19 -35 -40 -35 -55 0 -24 -2 -24 -92 -24 -73 0 -95 4 -111 18
-17 15 -52 18 -321 22 l-301 5 -3 161 c-2 119 -6 165 -16 173 -7 6 -50 18 -96
27 -101 19 -234 71 -418 163 -262 131 -519 279 -689 397 -51 35 -99 64 -105
63 -7 0 -65 -36 -128 -80z m239 -158 c322 -209 801 -453 991 -505 36 -10 71
-20 78 -22 11 -3 12 -104 9 -541 -4 -595 -4 -596 -72 -762 -111 -273 -316
-515 -627 -738 -156 -113 -443 -273 -489 -273 -12 0 -82 31 -154 69 -526 275
-882 647 -1006 1051 -23 74 -23 84 -27 635 l-3 560 68 18 c193 50 699 306
1013 513 52 34 99 63 104 63 5 1 57 -30 115 -68z m-2341 -747 c30 -20 29 -59
-2 -79 -48 -32 -100 32 -61 75 22 24 34 25 63 4z m4521 -8 c42 -44 -4 -104
-55 -71 -28 18 -31 51 -7 77 22 24 35 23 62 -6z"/>
<path d="M2735 4037 l-117 -112 -1 -98 -1 -97 87 -88 88 -88 -25 -64 -24 -65
-103 -3 c-99 -3 -103 -2 -130 24 -22 21 -30 40 -35 83 -3 31 -13 72 -23 91
-14 31 -26 38 -106 67 -103 36 -127 39 -145 18 -26 -31 2 -60 87 -90 43 -15
81 -32 85 -39 4 -6 8 -38 8 -71 0 -59 1 -60 57 -117 l57 -58 123 0 123 0 0
-115 0 -115 -178 0 -179 0 -71 -74 c-40 -41 -72 -78 -72 -83 0 -17 31 -53 46
-53 8 0 46 29 84 65 l69 65 151 0 150 0 0 -115 0 -115 -98 0 -97 0 -82 -82
c-80 -82 -81 -84 -88 -144 l-7 -62 -74 -27 c-101 -37 -125 -63 -89 -98 16 -17
19 -16 144 28 78 28 85 33 102 70 9 22 21 58 24 80 5 29 21 54 53 88 l46 47
98 0 98 0 29 -58 30 -59 -105 -104 -104 -104 0 -105 0 -105 136 -122 c145
-133 174 -146 196 -97 12 25 8 30 -115 148 l-128 121 1 61 0 61 89 81 89 82
28 -38 c15 -20 56 -67 91 -103 l63 -65 2 -274 c3 -247 5 -274 21 -284 12 -8
22 -8 35 0 15 10 17 37 20 285 l2 274 63 65 c35 36 78 82 96 103 l32 39 90
-89 91 -88 -6 -58 c-5 -57 -6 -58 -93 -140 -167 -156 -164 -152 -154 -178 9
-25 41 -36 65 -22 8 4 73 62 146 128 l132 120 -7 103 -7 104 -101 98 -102 98
29 61 30 61 96 0 96 0 45 -47 c39 -40 49 -60 63 -118 9 -38 22 -75 29 -81 21
-19 205 -84 221 -78 20 8 30 39 18 60 -5 8 -44 30 -88 47 l-79 32 -8 60 c-8
58 -11 63 -90 143 l-82 82 -97 0 -98 0 0 115 0 115 152 0 151 0 68 -65 c37
-36 74 -65 83 -65 8 0 23 11 31 24 21 31 14 43 -67 123 l-63 63 -175 2 -175 3
-3 113 -3 112 124 0 124 0 61 62 62 63 0 65 0 65 80 29 c83 29 104 44 98 72
-7 40 -34 40 -139 4 -98 -34 -103 -37 -119 -75 -10 -22 -21 -66 -25 -97 -10
-85 -32 -98 -164 -98 -114 0 -106 -6 -134 98 l-11 42 82 83 82 82 0 101 0 101
-115 112 c-97 96 -119 112 -142 109 -23 -2 -29 -9 -31 -32 -3 -25 10 -43 103
-136 l107 -107 -7 -55 c-7 -52 -12 -60 -74 -122 l-66 -66 -120 40 c-66 22
-129 39 -140 39 -11 0 -74 -17 -140 -39 -135 -45 -115 -49 -212 44 -52 50 -53
51 -53 109 l0 59 105 108 c58 59 105 111 105 115 0 3 -5 15 -10 26 -22 40 -54
23 -175 -94z m205 -652 l70 -35 0 -50 c0 -28 -5 -50 -10 -50 -13 0 -118 53
-143 72 -17 12 -17 19 -8 56 7 23 14 42 17 42 2 0 36 -16 74 -35z m424 27 c3
-5 8 -26 11 -48 l7 -39 -78 -38 c-80 -40 -94 -39 -94 8 0 46 13 62 73 93 69
34 74 36 81 24z"/>
<path d="M3630 4585 c-6 -8 -9 -18 -6 -23 3 -5 83 -48 178 -95 95 -47 216
-113 270 -146 l96 -61 121 0 121 0 87 -80 c49 -44 93 -80 99 -80 6 0 24 -18
39 -39 l27 -40 -26 -28 c-29 -31 -32 -43 -14 -61 18 -18 26 -15 43 18 14 28
20 30 70 30 30 0 55 -5 55 -10 0 -6 30 -39 67 -75 45 -44 75 -65 91 -65 31 0
102 56 102 81 0 23 -32 26 -50 3 -31 -36 -46 -35 -94 7 -25 22 -46 46 -46 52
0 7 17 12 42 12 33 0 43 4 46 18 3 14 -4 17 -37 17 -22 0 -43 -5 -46 -11 -5
-7 -14 -5 -30 5 -12 8 -44 16 -70 18 -43 3 -50 7 -81 50 l-35 47 33 36 33 36
47 -35 c47 -37 72 -44 83 -26 3 6 19 10 35 10 28 0 41 14 33 38 -3 6 -17 12
-32 12 -27 0 -28 1 -23 54 5 59 -11 77 -48 54 -33 -21 -41 2 -16 50 l22 42 64
-53 c109 -90 130 -114 130 -153 0 -29 11 -46 75 -113 69 -72 75 -81 69 -110
-8 -41 10 -65 38 -50 16 9 19 17 14 42 -4 18 -8 45 -10 60 -2 17 -21 47 -49
75 -26 26 -47 50 -47 53 0 9 101 -1 132 -13 38 -14 68 4 68 42 0 16 -7 33 -16
38 -8 5 -62 7 -120 4 l-104 -5 0 80 c0 62 -4 84 -16 94 -14 11 -18 10 -30 -6
-8 -10 -14 -30 -14 -43 0 -23 -3 -22 -51 20 -28 23 -80 62 -117 85 -65 41 -67
43 -72 90 -4 40 -8 48 -25 48 -18 0 -20 -8 -23 -62 -3 -60 -2 -63 27 -81 l29
-18 -30 -72 -30 -72 -40 35 c-42 39 -61 41 -66 7 -2 -13 7 -28 27 -43 44 -32
46 -48 10 -85 l-32 -33 -87 79 -87 80 -123 0 -123 0 -91 58 c-104 65 -412 222
-437 222 -9 0 -22 -7 -29 -15z m1180 -355 l0 -31 -30 22 c-33 25 -31 39 6 39
20 0 24 -5 24 -30z"/>
<path d="M5060 4545 c-16 -19 -6 -45 19 -45 23 0 35 28 20 46 -15 18 -24 18
-39 -1z"/>
<path d="M2033 4515 c-25 -17 -30 -54 -13 -86 14 -25 71 -26 93 -1 48 53 -22
128 -80 87z"/>
<path d="M4123 4519 c-34 -12 -46 -44 -31 -77 14 -30 54 -40 86 -23 59 32 8
124 -55 100z"/>
<path d="M4865 4520 c-4 -7 -3 -16 3 -22 14 -14 45 -2 40 15 -6 16 -34 21 -43
7z"/>
<path d="M1028 4379 c-44 -25 -3 -93 42 -69 26 14 26 56 1 70 -23 12 -22 12
-43 -1z"/>
<path d="M5148 4383 c-20 -5 -31 -33 -22 -56 14 -39 74 -24 74 18 0 26 -25 44
-52 38z"/>
<path d="M800 3975 c-15 -19 -4 -52 21 -60 26 -8 49 11 49 40 0 34 -47 48 -70
20z"/>
<path d="M5309 3930 c-35 -33 -92 -84 -126 -113 -66 -56 -79 -75 -64 -90 16
-16 48 4 147 95 52 48 105 87 125 93 36 11 49 36 29 60 -22 26 -47 16 -111
-45z"/>
<path d="M923 3893 c-29 -10 -8 -42 69 -106 44 -37 89 -67 100 -67 39 0 17 38
-59 102 -89 74 -94 77 -110 71z"/>
<path d="M752 3843 c4 -22 43 -25 43 -3 0 8 -11 16 -23 18 -19 3 -23 0 -20
-15z"/>
<path d="M5425 3850 c-4 -7 -3 -16 3 -22 14 -14 45 -2 40 15 -6 16 -34 21 -43
7z"/>
<path d="M1412 3833 c3 -16 16 -18 113 -18 91 0 110 3 110 15 0 12 -21 16
-113 18 -104 2 -113 1 -110 -15z"/>
<path d="M4582 3833 c3 -16 16 -18 103 -18 87 0 100 2 103 18 3 15 -7 17 -103
17 -96 0 -106 -2 -103 -17z"/>
<path d="M664 3505 c-9 -23 3 -45 26 -45 25 0 37 25 20 45 -16 19 -39 19 -46
0z"/>
<path d="M5504 3505 c-9 -23 3 -45 25 -45 23 0 35 28 20 46 -15 18 -38 18 -45
-1z"/>
<path d="M4730 3460 c0 -16 5 -21 23 -18 12 2 22 10 22 18 0 8 -10 16 -22 18
-18 3 -23 -2 -23 -18z"/>
<path d="M4855 3470 c-16 -26 14 -30 211 -30 190 0 205 1 202 18 -3 15 -22 17
-205 20 -129 1 -204 -1 -208 -8z"/>
<path d="M1230 3436 c-28 -35 11 -93 48 -70 35 22 22 84 -18 84 -10 0 -23 -7
-30 -14z"/>
<path d="M1583 3442 c-7 -4 -12 -63 -13 -147 -3 -174 -5 -165 25 -165 l25 0 0
154 c0 119 -3 155 -13 159 -8 3 -19 2 -24 -1z"/>
<path d="M4601 3441 c-8 -5 -11 -53 -9 -157 l3 -149 25 0 25 0 3 151 c2 142 1
152 -17 157 -10 2 -24 1 -30 -2z"/>
<path d="M875 3359 c-62 -62 -77 -81 -67 -91 7 -7 12 -16 12 -20 0 -12 -98
-10 -105 2 -8 12 -45 13 -45 1 0 -5 -14 -11 -30 -15 -17 -3 -33 -12 -36 -21
-8 -20 13 -45 38 -45 17 0 19 -7 16 -67 l-3 -68 -42 0 c-85 -1 -85 -57 1 -63
l46 -3 0 -70 c0 -62 -2 -69 -20 -69 -21 0 -45 -34 -35 -50 3 -6 16 -10 27 -10
12 0 30 -7 40 -17 17 -15 19 -15 36 0 16 15 50 17 271 17 214 0 252 -2 257
-15 8 -20 40 -19 48 1 3 9 6 60 6 115 l0 100 138 -3 137 -3 1 -190 c2 -234 -1
-217 27 -213 l22 3 3 233 2 232 -165 0 -165 0 0 110 c0 93 -3 112 -16 117 -9
3 -25 1 -35 -5 -23 -15 -109 -16 -109 -2 0 6 5 10 10 10 24 0 5 27 -72 101
-46 43 -90 78 -98 78 -8 -1 -51 -36 -95 -80z m32 -211 c27 -26 33 -39 33 -75
l0 -43 -109 0 -109 0 -4 71 c-2 39 -1 73 1 75 2 2 38 4 80 4 71 0 77 -2 108
-32z m318 -43 l0 -70 -110 0 -110 0 -3 34 c-3 28 3 40 35 73 l38 39 75 -3 75
-3 0 -70z m-285 -205 l0 -71 -111 3 -111 3 -3 68 -3 67 114 0 114 0 0 -70z
m290 0 l0 -70 -115 0 -115 0 0 70 0 70 115 0 115 0 0 -70z"/>
<path d="M1437 3433 c-11 -11 -8 -221 3 -228 6 -4 17 -1 25 5 23 19 21 215 -1
224 -19 7 -19 7 -27 -1z"/>
<path d="M654 3386 c-10 -26 4 -48 28 -44 17 2 23 10 23 28 0 18 -6 26 -23 28
-13 2 -25 -3 -28 -12z"/>
<path d="M5514 3385 c-8 -21 2 -45 19 -45 8 0 20 7 27 15 10 12 10 18 0 30 -7
8 -19 15 -27 15 -7 0 -16 -7 -19 -15z"/>
<path d="M4734 3375 c-7 -18 3 -35 21 -35 18 0 26 15 19 34 -8 20 -33 21 -40
1z"/>
<path d="M4855 3369 c-4 -6 -4 -13 0 -17 7 -7 306 -4 313 3 2 2 1 8 -3 14 -9
15 -301 15 -310 0z"/>
<path d="M4734 3276 c-9 -24 4 -48 23 -44 12 2 18 12 18 28 0 29 -32 41 -41
16z"/>
<path d="M5277 3273 c-4 -3 -7 -14 -7 -23 0 -22 -38 -30 -131 -30 l-68 0 -3
-92 -3 -93 -40 0 -40 0 -3 58 c-3 56 -4 57 -32 57 -30 0 -30 0 -30 -60 l0 -60
-165 0 -165 0 2 -232 3 -233 25 0 25 0 3 203 2 202 135 0 134 0 3 -97 3 -98
279 -3 c243 -2 282 -4 298 -19 16 -15 20 -15 36 0 9 8 28 17 42 19 19 2 25 9
25 28 0 20 -6 26 -27 28 -28 3 -28 4 -28 73 l0 69 44 0 c51 0 77 21 59 48 -7
12 -24 17 -54 17 l-44 0 -3 66 -3 66 31 7 c26 5 31 10 28 28 -3 22 -8 23 -100
26 -97 3 -98 3 -98 27 0 24 -3 25 -63 25 -35 0 -67 -3 -70 -7z m-7 -173 l0
-70 -35 0 -35 0 0 70 0 70 35 0 35 0 0 -70z m228 3 l-3 -68 -42 -3 -43 -3 0
70 0 71 45 0 46 0 -3 -67z m-428 -204 l0 -70 -42 3 -43 3 2 65 c1 36 2 66 2
68 1 1 19 2 41 2 l40 0 0 -71z m200 1 l0 -70 -35 0 -35 0 0 70 0 70 35 0 35 0
0 -70z m225 11 c4 -33 4 -65 0 -70 -3 -6 -24 -11 -46 -11 l-39 0 0 70 0 70 39
0 39 0 7 -59z"/>
<path d="M1437 2814 c-4 -4 -7 -62 -7 -130 0 -96 3 -123 14 -127 29 -12 37 19
34 139 -3 98 -6 119 -18 122 -9 1 -19 0 -23 -4z"/>
<path d="M4737 2814 c-4 -4 -7 -63 -7 -131 0 -116 1 -123 20 -123 19 0 20 7
22 100 1 55 2 112 2 127 1 27 -21 42 -37 27z"/>
<path d="M800 2665 c0 -13 23 -15 172 -13 126 2 172 6 176 16 3 9 -36 12 -172
12 -151 0 -176 -2 -176 -15z"/>
<path d="M4853 2668 c3 -10 67 -13 277 -13 210 0 274 3 278 13 3 9 -57 12
-278 12 -221 0 -281 -3 -277 -12z"/>
<path d="M654 2605 c-9 -23 3 -45 26 -45 25 0 37 25 20 45 -16 19 -39 19 -46
0z"/>
<path d="M5510 2605 c-10 -12 -10 -18 0 -30 7 -8 18 -15 25 -15 7 0 18 7 25
15 10 12 10 18 0 30 -7 8 -18 15 -25 15 -7 0 -18 -7 -25 -15z"/>
<path d="M975 2580 c-16 -27 15 -32 178 -28 154 3 190 8 174 24 -4 4 -83 9
-175 12 -127 3 -171 2 -177 -8z"/>
<path d="M4860 2580 c-13 -9 -13 -11 0 -20 17 -12 324 -10 335 2 4 4 4 11 0
17 -8 14 -314 15 -335 1z"/>
<path d="M774 2464 c-47 -49 -47 -93 0 -140 57 -57 136 -45 181 29 9 14 48 16
370 18 l360 2 55 -91 c30 -50 68 -114 85 -142 22 -38 35 -50 50 -48 11 2 21
10 23 19 3 16 -162 308 -182 321 -6 4 -181 8 -389 8 -330 0 -378 2 -384 15 -8
23 -57 45 -99 45 -29 0 -44 -7 -70 -36z m114 -36 c17 -17 15 -48 -5 -70 -20
-22 -41 -23 -65 -1 -20 18 -23 36 -8 64 12 22 59 26 78 7z"/>
<path d="M5288 2470 l-30 -30 -377 0 c-348 0 -379 -1 -393 -17 -8 -10 -52 -82
-97 -161 -83 -143 -93 -177 -50 -170 16 2 44 41 103 143 l82 139 177 -2 c97
-1 262 -2 367 -2 151 0 190 -3 190 -13 0 -8 11 -23 23 -35 75 -70 187 -27 187
72 -1 96 -114 143 -182 76z m115 -51 c14 -23 1 -67 -23 -74 -45 -14 -80 36
-53 75 17 25 60 24 76 -1z"/>
<path d="M672 2468 c2 -15 10 -23 23 -23 30 0 27 39 -3 43 -20 3 -23 0 -20
-20z"/>
<path d="M5502 2468 c2 -15 10 -23 23 -23 30 0 27 39 -3 43 -20 3 -23 0 -20
-20z"/>
<path d="M734 2235 c-4 -9 0 -23 8 -31 20 -20 50 -7 46 20 -4 26 -45 35 -54
11z"/>
<path d="M1042 2233 c3 -15 15 -18 83 -18 68 0 80 3 83 18 3 15 -6 17 -83 17
-77 0 -86 -2 -83 -17z"/>
<path d="M1357 2243 c-17 -16 -5 -42 25 -52 l31 -11 -24 -26 c-13 -14 -36 -32
-51 -40 -36 -19 -35 -31 5 -72 l32 -34 -35 -29 c-19 -16 -38 -29 -42 -29 -11
0 -87 84 -88 97 0 6 23 31 50 56 34 31 48 50 44 61 -9 24 -21 20 -81 -31 -30
-26 -65 -48 -77 -48 -31 0 -34 -38 -3 -52 14 -7 45 -38 69 -70 41 -53 44 -61
35 -90 l-10 -33 -114 0 c-63 0 -123 5 -134 11 -25 13 -56 3 -70 -22 -8 -16 -7
-26 6 -46 14 -20 22 -24 43 -18 15 4 68 10 119 12 l92 4 3 -58 c3 -50 6 -58
23 -58 17 0 20 8 23 58 l3 57 126 0 125 0 56 56 56 56 -24 19 c-65 49 -89 73
-92 93 -2 14 -10 21 -26 21 -12 0 -34 13 -49 28 l-28 27 45 40 c25 21 49 39
54 40 5 0 47 -35 93 -77 47 -43 110 -99 140 -125 l55 -48 121 0 122 0 130
-120 c139 -129 266 -231 438 -355 106 -76 142 -88 142 -50 0 14 -34 45 -109
100 -181 132 -317 244 -450 368 l-126 117 -124 0 -125 0 -122 108 -122 107 74
5 c71 5 74 6 74 30 0 25 -1 25 -96 28 -77 2 -99 0 -109 -13 -16 -19 -64 -19
-80 0 -13 16 -32 19 -43 8z m109 -317 l48 -43 -29 -26 c-27 -24 -38 -26 -112
-27 -71 0 -83 2 -83 17 0 17 102 123 119 123 5 0 31 -20 57 -44z"/>
<path d="M4532 2241 c-8 -5 -12 -17 -10 -27 3 -16 14 -19 70 -22 l67 -3 -119
-109 -118 -110 -121 0 -121 0 -98 -93 c-207 -198 -544 -456 -673 -516 -175
-82 -354 -91 -537 -29 -59 21 -63 21 -79 5 -15 -15 -16 -19 -3 -32 9 -8 49
-27 90 -42 69 -25 87 -27 220 -27 138 0 150 1 240 33 113 38 149 58 301 167
152 108 331 255 462 377 l104 97 118 0 c136 0 103 -18 307 171 l116 109 55 0
c62 0 89 18 67 45 -10 12 -42 15 -169 15 -86 0 -162 -4 -169 -9z"/>
<path d="M5002 2233 c3 -16 14 -18 83 -18 64 0 80 3 80 15 0 12 -17 16 -83 18
-76 3 -83 1 -80 -15z"/>
<path d="M5423 2234 c-3 -8 2 -23 11 -32 15 -15 17 -15 32 0 21 21 11 48 -16
48 -11 0 -23 -7 -27 -16z"/>
<path d="M4876 2130 c-29 -27 -61 -50 -70 -50 -9 0 -20 -9 -24 -19 -4 -11 -44
-54 -89 -96 -48 -45 -83 -85 -83 -96 0 -39 40 -19 122 61 89 86 119 97 153 60
18 -20 18 -21 -5 -45 -17 -18 -29 -23 -50 -18 -16 3 -31 0 -35 -7 -12 -19 15
-58 44 -65 26 -6 111 -78 111 -94 0 -5 -7 -14 -15 -21 -8 -7 -15 -19 -15 -27
0 -25 30 -26 56 -3 l24 23 0 -39 c0 -32 -8 -48 -46 -92 -25 -28 -51 -52 -58
-52 -7 0 -35 25 -62 55 -27 30 -52 55 -56 55 -4 0 -20 12 -35 26 -84 79 -96
84 -221 84 l-115 0 -91 -88 c-122 -119 -127 -122 -209 -122 -65 0 -68 -1 -65
-22 3 -21 9 -23 73 -26 38 -2 79 -1 91 2 11 3 67 48 124 101 l103 95 101 0
101 0 52 -48 53 -47 -29 -32 -30 -32 -49 40 c-40 31 -58 39 -90 39 -31 0 -42
-4 -47 -19 -10 -33 -45 -71 -65 -71 -21 0 -63 -47 -57 -64 6 -17 39 -20 51 -4
6 7 24 19 39 26 15 6 37 28 48 47 12 19 27 35 34 35 7 0 33 -16 57 -35 70 -56
95 -67 117 -53 10 6 17 18 14 25 -8 20 25 63 47 63 12 0 26 -13 36 -32 14 -28
15 -39 4 -81 -8 -34 -9 -52 -2 -59 19 -19 40 0 49 44 7 35 13 44 33 46 14 2
52 30 88 65 l62 61 0 78 0 78 81 0 c44 0 90 -5 101 -11 51 -28 92 36 48 76
-17 15 -24 16 -46 7 -13 -7 -64 -12 -111 -12 -74 0 -90 -3 -109 -21 l-22 -21
-46 45 -45 46 19 23 18 23 29 -26 c49 -45 88 -12 42 37 -20 21 -20 23 -4 47
24 38 44 41 85 12 20 -14 45 -25 56 -25 25 0 179 154 170 169 -15 23 -44 9
-101 -49 -33 -33 -65 -60 -73 -60 -19 0 -72 42 -72 57 0 7 -7 13 -16 13 -9 0
-34 16 -57 35 -22 19 -47 35 -54 35 -8 0 -38 -22 -67 -50z m95 -31 c35 -25 36
-31 4 -65 -24 -25 -26 -26 -43 -11 -10 10 -24 17 -30 17 -24 0 -23 23 4 51 15
16 30 29 32 29 2 0 17 -9 33 -21z"/>
<path d="M897 2153 c-16 -15 -2 -35 83 -119 93 -91 116 -106 131 -82 6 9 -20
41 -89 111 -92 92 -110 106 -125 90z"/>
<path d="M807 2054 c-15 -15 -7 -53 13 -59 27 -8 52 12 48 39 -3 21 -46 35
-61 20z"/>
<path d="M5351 2042 c-20 -38 31 -71 59 -37 6 8 9 23 5 35 -8 25 -51 27 -64 2z"/>
<path d="M2027 1762 c-19 -21 -22 -54 -7 -83 15 -28 74 -26 94 3 21 30 20 54
-4 78 -25 25 -62 26 -83 2z"/>
<path d="M4107 1762 c-36 -39 -11 -102 39 -102 29 0 64 33 64 60 0 27 -35 60
-63 60 -13 0 -31 -8 -40 -18z"/>
<path d="M1520 1731 c-28 -21 -58 -48 -66 -60 -8 -12 -22 -21 -30 -21 -8 0
-18 -8 -21 -17 -4 -10 -22 -32 -40 -50 -25 -26 -40 -33 -65 -31 -25 2 -33 -1
-36 -16 -5 -22 13 -36 49 -36 24 0 28 -5 36 -47 6 -38 12 -48 28 -48 18 0 20
6 17 65 -3 53 0 71 15 89 19 23 20 23 47 6 21 -14 26 -24 22 -41 -6 -21 8 -34
38 -34 7 0 39 20 72 45 32 24 64 45 70 45 6 0 23 -17 37 -38 14 -22 39 -45 56
-52 17 -7 31 -16 31 -21 0 -15 40 -10 47 6 6 17 -23 55 -43 55 -15 0 -60 52
-69 80 -11 35 -77 27 -132 -15 -25 -19 -49 -35 -53 -35 -3 0 -19 13 -34 29
l-27 28 52 47 51 46 100 0 100 0 85 -80 c86 -80 115 -95 127 -64 8 21 0 30
-106 126 l-88 78 -109 0 -109 0 -52 -39z"/>
<path d="M1020 1665 c-26 -31 8 -83 45 -69 37 15 25 84 -15 84 -10 0 -23 -7
-30 -15z"/>
<path d="M5136 1664 c-22 -21 -20 -40 6 -58 27 -19 58 -5 58 27 0 43 -35 60
-64 31z"/>
<path d="M2072 1563 c-38 -4 -43 -7 -40 -26 3 -20 10 -22 64 -25 47 -2 64 1
75 14 11 14 11 18 -6 30 -10 8 -26 13 -34 12 -9 -1 -35 -3 -59 -5z"/>
<path d="M1114 1525 c-7 -16 -2 -23 120 -163 l88 -102 61 0 62 0 71 71 c72 71
72 71 97 54 14 -9 42 -36 61 -59 l35 -43 -24 -23 c-29 -27 -31 -38 -9 -47 8
-3 25 4 39 17 22 21 25 21 47 6 30 -22 94 -20 147 4 24 11 45 20 47 20 9 0 74
-106 74 -120 -1 -8 -10 -26 -21 -39 -20 -24 -21 -24 -49 -8 -27 16 -29 16 -51
-3 l-24 -20 25 -19 24 -19 -59 -64 c-33 -35 -66 -69 -73 -77 -15 -16 -12 -31
11 -45 12 -8 21 -6 36 8 17 15 31 18 77 13 31 -3 58 -8 61 -11 3 -3 -7 -19
-21 -37 -48 -56 -19 -91 33 -40 18 17 36 31 41 31 4 0 33 -22 63 -50 70 -64
110 -68 176 -15 l44 35 107 0 107 0 24 -37 c83 -128 269 -82 271 67 1 91 -52
145 -142 145 -67 0 -111 -29 -134 -87 l-16 -38 -100 0 -100 0 -55 67 c-50 61
-69 93 -46 79 15 -10 61 12 61 29 0 26 -30 29 -59 7 l-28 -21 -59 72 c-60 72
-98 142 -88 158 3 5 16 9 30 9 15 0 24 6 24 15 0 22 -27 30 -57 16 -28 -13
-53 -1 -53 25 0 10 26 14 113 16 104 3 112 4 112 23 0 19 -8 20 -129 23 l-129
3 -51 -36 c-29 -20 -68 -38 -87 -41 -31 -5 -39 -1 -89 51 -33 33 -55 65 -55
78 0 17 -7 23 -32 25 -17 2 -37 10 -43 18 -21 25 -39 16 -120 -61 -114 -109
-119 -108 -251 40 -101 113 -124 130 -135 100z m1016 -520 c0 -6 -23 -33 -51
-60 -47 -46 -52 -49 -62 -31 -7 10 -20 28 -29 40 -15 18 -19 19 -28 6 -5 -8
-8 -21 -5 -27 3 -8 -5 -13 -20 -13 -14 0 -25 2 -25 5 0 3 16 21 36 40 35 34
36 34 66 19 28 -14 32 -14 47 1 15 15 14 18 -11 39 l-26 23 21 22 22 21 32
-37 c18 -21 32 -43 33 -48z m127 -158 c25 -37 26 -38 7 -52 -10 -9 -32 -22
-47 -31 -27 -15 -28 -14 -88 42 l-60 58 48 48 48 49 33 -38 c18 -21 45 -55 59
-76z m494 34 c59 -60 23 -161 -58 -161 -89 0 -132 104 -67 161 43 38 87 37
125 0z"/>
<path d="M5032 1503 c-20 -21 -69 -73 -107 -116 -95 -104 -106 -104 -221 -2
-72 64 -88 74 -104 65 -10 -6 -21 -14 -25 -19 -3 -6 -20 -7 -39 -4 -36 6 -56
-11 -37 -30 6 -6 11 -17 11 -24 0 -18 -69 -93 -85 -93 -7 0 -37 16 -65 35
l-53 35 -161 -2 c-153 -3 -161 -4 -161 -23 0 -19 8 -20 150 -25 l151 -5 74
-45 73 -44 87 92 c47 51 90 92 95 92 4 0 39 -29 76 -65 l67 -65 62 0 c70 0 62
-7 195 148 44 51 80 100 80 109 0 31 -26 25 -63 -14z"/>
<path d="M2317 1454 c-11 -11 5 -34 24 -34 12 0 19 7 19 20 0 19 -28 28 -43
14z"/>
<path d="M2410 1405 c0 -8 23 -26 50 -40 44 -22 51 -23 56 -10 4 9 5 17 3 19
-2 1 -20 12 -40 24 -42 26 -69 28 -69 7z"/>
<path d="M3716 1380 c-40 -26 -46 -33 -36 -45 11 -13 19 -11 64 14 51 30 65
53 36 59 -8 1 -37 -11 -64 -28z"/>
<path d="M2293 1334 c-3 -8 1 -22 8 -29 34 -33 238 -152 397 -232 137 -69 177
-85 190 -76 9 5 17 16 17 24 0 8 -75 53 -175 104 -96 50 -225 121 -286 158
-116 70 -140 78 -151 51z"/>
<path d="M3740 1258 c-91 -50 -217 -115 -280 -144 -63 -29 -123 -58 -132 -64
-23 -13 -23 -46 -1 -54 19 -8 331 144 498 242 82 48 100 62 100 82 0 13 -4 25
-10 27 -5 1 -84 -38 -175 -89z"/>
<path d="M1587 1292 c-29 -30 -35 -52 -14 -52 16 0 67 52 67 68 0 21 -25 13
-53 -16z"/>
<path d="M4098 1233 c-2 -21 -12 -31 -41 -42 -36 -13 -39 -13 -53 7 -8 12 -21
22 -29 22 -25 0 -28 -21 -7 -50 l20 -27 -20 -20 -20 -20 -38 20 -38 21 -48
-39 c-97 -80 -157 -141 -150 -153 13 -22 35 -12 103 46 105 89 97 84 128 70
20 -9 25 -17 21 -32 -3 -12 -6 -29 -6 -38 0 -12 -10 -18 -32 -20 -25 -2 -33
-8 -33 -23 0 -16 8 -21 37 -23 31 -3 38 -7 43 -32 5 -22 0 -34 -22 -56 -27
-28 -30 -29 -141 -29 l-112 0 -11 33 c-12 37 -40 57 -57 40 -7 -7 -6 -21 5
-45 17 -43 11 -76 -22 -109 -55 -55 -165 -7 -165 73 0 42 31 89 65 97 19 5 25
13 25 32 0 23 -3 25 -27 19 -69 -16 -113 -73 -113 -145 0 -124 144 -193 244
-116 19 14 37 34 41 45 8 25 43 31 154 24 83 -6 100 -10 138 -36 35 -23 46
-27 58 -17 22 18 19 25 -26 55 l-42 27 21 21 21 21 44 -22 c24 -12 54 -22 65
-22 16 0 21 -7 24 -32 2 -21 8 -33 17 -33 8 0 19 15 23 33 7 25 14 32 33 32
14 0 25 -4 25 -10 0 -5 6 -10 13 -10 18 0 49 34 40 43 -12 12 37 55 57 50 23
-6 37 31 20 52 -11 13 1 15 87 15 107 0 143 13 143 52 0 17 -4 19 -27 13 -16
-4 -67 -10 -114 -12 -83 -4 -87 -4 -93 19 -11 43 -6 62 26 88 19 16 28 31 24
38 -10 17 -41 15 -56 -3 -17 -20 -33 -19 -47 4 -10 16 -8 22 8 37 21 19 26 54
7 54 -6 0 -21 -9 -32 -19 -19 -17 -26 -18 -63 -8 -33 9 -42 16 -47 39 -8 38
-43 39 -48 1z m2 -118 c0 -35 0 -35 -45 -35 -25 0 -45 4 -45 8 0 11 41 48 60
55 27 10 30 7 30 -28z m90 20 c16 -8 34 -24 40 -35 10 -19 8 -20 -35 -20 -45
0 -45 0 -45 35 0 40 1 40 40 20z m78 -127 c3 -28 3 -28 -57 -28 -58 0 -61 1
-61 24 0 20 6 25 33 29 66 9 82 4 85 -25z m-168 -3 c0 -24 -2 -25 -65 -25 -63
0 -65 1 -65 25 0 24 2 25 65 25 63 0 65 -1 65 -25z m0 -120 c0 -38 -3 -45 -19
-45 -22 0 -76 42 -92 71 -9 18 -5 19 51 19 l60 0 0 -45z m160 37 c0 -26 -68
-82 -100 -82 -5 0 -10 20 -10 45 l0 45 55 0 c30 0 55 -3 55 -8z"/>
<path d="M1461 1161 c-19 -12 -6 -43 16 -39 10 2 18 12 18 22 0 22 -14 29 -34
17z"/>
<path d="M4721 1156 c-16 -19 -6 -36 20 -36 15 0 20 6 17 22 -4 27 -21 33 -37
14z"/>
<path d="M4390 1135 c0 -9 10 -15 28 -16 15 -1 65 -3 112 -5 98 -5 130 0 130
21 0 13 -22 15 -135 15 -113 0 -135 -2 -135 -15z"/>
<path d="M2924 1126 c-11 -28 7 -36 82 -36 l74 0 0 -262 c0 -175 -4 -272 -12
-294 -14 -40 2 -67 40 -62 37 4 48 29 33 75 -8 27 -11 110 -9 288 l3 250 80 5
c72 4 80 7 80 25 0 19 -8 20 -183 23 -153 2 -183 0 -188 -12z"/>
<path d="M1550 1115 c0 -12 16 -15 80 -15 64 0 80 3 80 15 0 12 -16 15 -80 15
-64 0 -80 -3 -80 -15z"/>
<path d="M2323 1114 c-4 -10 6 -27 25 -47 25 -25 43 -32 89 -38 33 -3 62 -2
68 3 14 13 -22 38 -56 38 -14 0 -43 14 -64 30 -43 34 -53 36 -62 14z"/>
<path d="M1783 1054 c-8 -21 13 -42 28 -27 13 13 5 43 -11 43 -6 0 -13 -7 -17
-16z"/>
<path d="M1655 1000 c-9 -15 4 -30 26 -30 12 0 19 7 19 20 0 21 -33 29 -45 10z"/>
<path d="M2954 897 c-3 -8 -4 -45 -2 -83 3 -63 5 -69 26 -72 21 -3 22 -1 22
82 0 80 -1 86 -20 86 -11 0 -23 -6 -26 -13z"/>
<path d="M3221 856 c-7 -9 -11 -38 -9 -73 3 -50 6 -58 23 -58 18 0 20 7 20 69
0 70 -11 90 -34 62z"/>
<path d="M2817 663 c-4 -3 -7 -30 -7 -59 0 -38 4 -53 16 -58 27 -10 34 3 34
65 0 51 -3 59 -18 59 -10 0 -22 -3 -25 -7z"/>
<path d="M3357 664 c-4 -4 -7 -33 -7 -65 0 -44 4 -58 17 -63 26 -11 34 7 31
70 -2 44 -7 60 -18 62 -9 1 -19 0 -23 -4z"/>
<path d="M2400 641 c0 -15 6 -21 21 -21 25 0 22 33 -4 38 -12 2 -17 -3 -17
-17z"/>
<path d="M3777 646 c-7 -18 1 -26 25 -26 13 0 18 6 16 17 -4 22 -34 29 -41 9z"/>
<path d="M2507 634 c-14 -15 -6 -43 14 -49 25 -8 42 6 37 31 -3 19 -38 31 -51
18z"/>
<path d="M2952 631 c-19 -12 -26 -73 -10 -94 23 -31 48 -11 48 38 0 44 -17 69
-38 56z"/>
<path d="M3657 634 c-10 -11 -9 -42 3 -49 20 -12 51 6 48 28 -3 22 -36 35 -51
21z"/>
<path d="M3224 617 c-3 -8 -4 -32 -2 -53 2 -31 7 -39 23 -39 17 0 20 7 20 50
0 39 -4 50 -18 53 -9 2 -20 -3 -23 -11z"/>
<path d="M2656 601 c-10 -16 5 -41 24 -41 19 0 34 25 24 41 -3 5 -14 9 -24 9
-10 0 -21 -4 -24 -9z"/>
<path d="M3507 597 c-8 -21 8 -39 29 -35 27 5 25 42 -2 46 -12 2 -24 -3 -27
-11z"/>
</g>
</svg>
