<?xml version="1.0" standalone="no"?>
<!DOCTYPE svg PUBLIC "-//W3C//DTD SVG 20010904//EN"
 "http://www.w3.org/TR/2001/REC-SVG-20010904/DTD/svg10.dtd">
<svg version="1.0" xmlns="http://www.w3.org/2000/svg"
 width="1024.000000pt" height="1024.000000pt" viewBox="0 0 1024.000000 1024.000000"
 preserveAspectRatio="xMidYMid meet">

<g transform="translate(0.000000,1024.000000) scale(0.100000,-0.100000)"
fill="#000000" stroke="none">
<path d="M5548 8846 c-21 -11 -23 -18 -20 -76 4 -83 19 -114 55 -118 49 -6 60
13 54 90 -3 37 -10 76 -16 86 -14 25 -43 33 -73 18z"/>
<path d="M4935 8809 c-13 -20 -34 -124 -35 -167 0 -36 4 -44 25 -54 19 -9 29
-8 48 5 19 12 26 30 35 84 7 37 15 77 18 89 3 13 -1 28 -11 38 -18 18 -70 22
-80 5z"/>
<path d="M5799 8789 c-14 -14 -19 -28 -15 -42 8 -33 41 -406 36 -410 -3 -2
-37 -2 -77 1 l-72 4 -8 41 c-11 53 -47 77 -87 59 -21 -9 -26 -19 -26 -45 l0
-34 -252 -7 c-139 -3 -269 -9 -289 -12 -34 -5 -37 -4 -42 24 -12 58 -89 50
-105 -11 -8 -32 -9 -32 -118 -53 -194 -37 -493 -120 -561 -156 -13 -6 -25 -9
-27 -7 -2 2 6 62 17 133 l21 128 -23 19 c-29 23 -33 23 -61 1 -21 -17 -37 -89
-64 -284 l-7 -47 -152 -75 c-84 -41 -169 -86 -191 -101 -21 -14 -40 -24 -43
-21 -3 2 1 39 8 81 12 73 12 78 -6 91 -25 18 -38 18 -64 -3 -17 -14 -27 -45
-45 -136 -13 -65 -25 -119 -27 -121 -2 -2 -24 -17 -49 -33 -25 -17 -54 -40
-65 -50 -11 -11 -33 -28 -48 -38 -15 -10 -36 -30 -47 -45 -20 -28 -20 -28 0
-23 11 3 20 9 20 12 0 4 6 8 13 8 6 0 82 23 167 51 171 55 526 147 720 186
668 133 1425 138 2177 15 369 -60 788 -165 1018 -255 20 -7 20 -7 0 15 -11 13
-38 35 -60 50 -22 15 -65 45 -95 66 -150 106 -340 219 -455 271 -33 15 -61 28
-62 28 -2 2 -43 328 -43 345 0 19 -32 41 -61 41 -41 0 -45 -29 -27 -190 9 -74
15 -136 13 -138 -1 -1 -27 7 -56 19 -134 53 -360 116 -579 162 l-65 13 -7 55
c-3 30 -14 132 -24 228 -14 140 -21 178 -36 193 -24 24 -43 23 -69 -3z"/>
<path d="M4652 8682 c-21 -21 -42 -100 -42 -157 0 -40 27 -60 66 -51 24 6 43
54 59 146 10 60 -45 100 -83 62z"/>
<path d="M4346 8598 c-8 -13 -20 -58 -27 -102 -13 -74 -12 -79 6 -92 10 -8 32
-14 47 -14 34 0 41 14 59 124 11 74 11 80 -6 92 -28 21 -63 17 -79 -8z"/>
<path d="M6352 8608 c-17 -17 -15 -51 7 -131 20 -73 27 -84 51 -87 55 -8 76
19 61 78 -5 20 -15 56 -21 79 -6 23 -17 49 -26 58 -18 18 -55 20 -72 3z"/>
<path d="M6064 8505 c-20 -31 -9 -65 31 -91 25 -16 27 -16 53 3 34 25 40 65
13 92 -30 30 -76 27 -97 -4z"/>
<path d="M3867 8328 c-9 -7 -23 -30 -32 -51 -15 -35 -15 -41 0 -63 23 -35 57
-31 94 11 37 42 40 78 9 99 -27 19 -49 20 -71 4z"/>
<path d="M6845 8296 c-14 -21 -14 -28 -1 -59 8 -20 26 -43 40 -52 24 -16 28
-16 51 -1 38 25 28 96 -19 128 -22 15 -56 7 -71 -16z"/>
<path d="M5040 7749 c-237 -16 -388 -35 -675 -85 -267 -46 -468 -96 -740 -184
-723 -232 -1211 -556 -1488 -988 -80 -126 -166 -338 -213 -527 -36 -142 -43
-325 -18 -432 18 -80 103 -259 165 -350 146 -215 390 -453 649 -635 203 -142
481 -280 775 -383 83 -29 194 -69 247 -88 99 -36 294 -84 303 -75 3 2 -2 23
-11 45 l-16 40 -124 7 c-138 8 -210 23 -301 65 -172 81 -319 250 -381 441 -29
89 -40 261 -23 355 17 89 74 202 131 258 26 26 52 47 57 47 4 0 37 -58 72
-128 l63 -128 -32 -35 c-44 -47 -90 -147 -97 -212 -12 -115 38 -240 131 -332
73 -72 157 -118 262 -145 76 -20 184 -27 184 -12 0 4 -9 45 -21 92 -33 139
-98 616 -115 856 -7 98 1 169 17 158 6 -3 17 2 25 12 11 15 13 15 8 3 -3 -9 1
-19 9 -22 11 -4 13 2 7 31 -4 21 -11 46 -15 57 -4 11 29 -41 73 -115 45 -74
91 -148 104 -164 13 -16 26 -37 29 -45 3 -9 12 58 18 149 7 91 16 201 21 245
9 84 57 275 70 275 4 0 65 -33 136 -73 71 -40 166 -93 211 -117 45 -24 80 -47
77 -52 -3 -4 -22 -8 -42 -9 -36 0 -36 0 18 -18 100 -32 255 -119 300 -167 l42
-45 64 27 c73 31 97 53 92 86 -2 18 -26 35 -118 82 -147 74 -672 351 -726 383
l-42 24 27 92 c46 154 146 397 172 413 4 2 18 -19 31 -48 103 -243 262 -518
371 -643 52 -59 58 -45 47 110 -5 72 -9 267 -9 435 l0 305 38 44 39 43 27 -53
c203 -405 465 -785 727 -1055 l59 -61 -40 -26 c-29 -19 -41 -34 -41 -51 0 -80
193 -99 276 -27 19 17 40 31 47 31 7 0 41 14 77 31 144 69 269 96 319 69 10
-5 30 -11 44 -14 l27 -5 -20 42 c-11 23 -15 34 -8 23 49 -72 63 -96 82 -136
l20 -45 7 50 c4 28 8 108 8 178 1 71 4 126 9 124 4 -3 39 -2 79 2 l72 7 16
-71 c9 -38 32 -164 52 -280 19 -115 42 -217 49 -226 8 -8 14 -29 14 -45 0 -22
3 -26 10 -14 5 8 10 11 10 5 0 -5 5 -3 10 5 8 13 10 13 10 -2 0 -9 -9 -20 -20
-23 -11 -3 -20 -11 -20 -16 0 -5 14 -2 31 6 23 13 29 20 23 37 -4 14 -2 18 5
14 6 -4 11 -3 11 3 0 5 13 12 29 16 22 5 31 13 34 33 2 15 5 5 5 -23 2 -48
-15 -211 -37 -360 -45 -303 -62 -409 -75 -465 -24 -102 -27 -97 56 -88 312 33
536 264 497 512 -12 70 -47 142 -95 196 l-35 39 69 130 68 130 54 -47 c94 -82
145 -223 145 -407 0 -128 -21 -211 -86 -336 -97 -186 -283 -333 -466 -368 -34
-6 -109 -12 -168 -12 l-106 -1 -24 -49 c-14 -27 -24 -49 -23 -49 71 0 489 127
748 227 129 49 364 165 485 238 117 70 292 203 407 307 233 212 405 461 496
717 24 68 27 90 27 206 0 88 -6 156 -18 210 -58 259 -184 528 -342 730 -69 88
-251 268 -347 342 -168 129 -463 290 -708 386 -719 283 -1697 437 -2440 386z
m828 -1183 c169 -258 464 -778 449 -792 -3 -3 -77 -38 -164 -78 -87 -40 -195
-91 -240 -113 l-81 -41 -6 42 c-3 22 -13 127 -21 231 -32 389 -71 802 -80 842
-5 21 2 26 51 32 6 0 47 -55 92 -123z m664 -364 c-7 -2 -12 -11 -12 -19 0 -9
-3 -14 -6 -10 -3 3 -3 20 1 38 7 29 8 30 18 14 7 -14 7 -20 -1 -23z m37 -115
c16 4 24 -10 50 -76 17 -44 31 -82 31 -85 0 -5 -109 -56 -120 -56 -9 0 -20
193 -12 222 5 21 6 21 13 2 7 -17 8 -16 10 6 2 22 2 23 6 4 3 -15 10 -20 22
-17z m-309 -482 c-14 -8 -29 -14 -35 -14 -5 0 1 6 15 14 14 8 30 14 35 14 6 0
-1 -6 -15 -14z m-2443 -87 c-2 -13 -4 -3 -4 22 0 25 2 35 4 23 2 -13 2 -33 0
-45z m2588 22 c-3 -5 -12 -10 -18 -10 -7 0 -6 4 3 10 19 12 23 12 15 0z
m-2546 -131 c-13 -24 -14 -24 -14 5 0 14 5 22 12 19 9 -4 10 -10 2 -24z m3111
-131 c0 -18 -2 -20 -9 -8 -6 8 -7 18 -5 22 9 14 14 9 14 -14z m-94 -50 c4 -7
3 -8 -4 -4 -11 7 -17 -6 -13 -27 1 -5 -3 -6 -9 -2 -7 4 -7 12 0 26 12 22 16
23 26 7z m-36 -48 c0 -5 -5 -10 -11 -10 -5 0 -7 5 -4 10 3 6 8 10 11 10 2 0 4
-4 4 -10z m87 4 c-3 -3 -12 -4 -19 -1 -8 3 -5 6 6 6 11 1 17 -2 13 -5z"/>
<path d="M3900 5395 c0 -5 5 -17 10 -25 5 -8 10 -10 10 -5 0 6 -5 17 -10 25
-5 8 -10 11 -10 5z"/>
<path d="M4500 5381 c-105 -22 -170 -102 -170 -209 0 -175 210 -264 342 -144
50 45 68 86 68 149 -1 130 -117 229 -240 204z"/>
<path d="M6207 5376 c-156 -43 -202 -265 -75 -359 84 -62 185 -60 267 4 107
85 88 268 -34 336 -54 29 -101 35 -158 19z"/>
<path d="M3848 5359 c-25 -14 -22 -24 7 -27 14 -1 25 3 25 8 0 6 -5 10 -11 10
-5 0 -7 5 -4 10 8 12 5 12 -17 -1z"/>
<path d="M3840 5316 c0 -2 7 -7 16 -10 8 -3 12 -2 9 4 -6 10 -25 14 -25 6z"/>
<path d="M5276 5214 c-3 -9 -6 -156 -6 -327 1 -338 -2 -322 61 -370 48 -36 75
-34 147 12 90 59 92 84 12 145 l-50 38 0 217 0 217 -27 26 c-64 58 -124 77
-137 42z"/>
<path d="M6900 5135 c-16 -19 -1 -19 24 0 16 12 17 15 4 15 -8 0 -21 -7 -28
-15z"/>
<path d="M6540 4698 c-104 -33 -130 -50 -130 -83 0 -55 69 -57 221 -8 71 24
85 32 93 55 8 22 6 32 -9 48 -24 27 -60 25 -175 -12z"/>
<path d="M6256 4624 c-34 -33 -9 -94 38 -94 45 0 75 67 44 98 -17 17 -64 15
-82 -4z"/>
<path d="M4282 4423 c-7 -3 -18 -17 -23 -30 -23 -60 38 -136 164 -207 38 -21
70 -36 71 -34 2 1 0 54 -3 117 l-6 114 -85 23 c-89 25 -97 26 -118 17z"/>
<path d="M6390 4410 c-30 -11 -64 -19 -75 -19 -19 -1 -20 -8 -21 -116 l-2
-115 70 37 c137 74 200 153 164 208 -20 30 -56 31 -136 5z"/>
<path d="M4383 3478 c4 -66 7 -178 7 -247 l0 -126 78 -52 c42 -28 115 -76 162
-106 91 -58 528 -337 700 -447 58 -37 191 -122 295 -188 363 -230 535 -344
535 -354 0 -11 -235 -404 -256 -429 -8 -8 -14 -19 -14 -22 0 -4 587 -7 1305
-7 l1306 0 8 22 c15 41 -27 125 -90 184 -37 34 -89 63 -214 120 -161 74 -463
216 -714 335 -79 38 -145 69 -147 69 -1 0 -60 27 -129 60 -69 33 -129 60 -132
60 -5 0 -130 58 -381 176 -133 63 -206 84 -291 84 l-61 0 0 491 c0 270 -3 489
-7 487 -5 -2 -53 -33 -108 -69 -204 -136 -448 -266 -565 -303 -41 -13 -113
-30 -159 -37 -98 -14 -281 -7 -356 14 -146 41 -363 151 -616 313 -81 52 -150
94 -154 94 -5 0 -5 -55 -2 -122z"/>
<path d="M4166 2589 c-27 -11 -128 -58 -225 -106 -97 -47 -264 -127 -371 -178
-107 -51 -242 -115 -300 -143 -58 -27 -127 -60 -155 -72 -49 -22 -136 -63
-425 -202 -80 -39 -185 -89 -235 -113 -98 -47 -154 -95 -185 -161 -31 -62 -31
-96 0 -109 31 -12 2560 -9 2560 4 0 7 -106 186 -219 368 -69 113 -242 405
-253 428 -9 19 -8 31 2 53 7 15 15 75 18 133 l4 106 -53 6 c-82 10 -110 8
-163 -14z"/>
</g>
</svg>
